<?xml version="1.0" encoding="utf-8"?>
<svg xmlns="http://www.w3.org/2000/svg" width="53" height="72" viewBox="0 0 53 72" fill="none">
<g clip-path="url(#clip0_1120_9745)">
<path d="M0.333252 10.3883V61.6018C15.0958 75.1215 36.8236 75.8066 52.3341 61.602L52.3343 49.3727V10.3886C37.2103 -3.46223 15.4568 -3.46308 0.333465 10.3883" fill="#C9D0DC"/>
<path d="M50.8406 11.052C36.9508 -1.66821 15.7165 -1.66821 1.8269 11.052V60.9379C15.7165 73.6586 36.951 73.6586 50.8406 60.9384V11.052Z" fill="#010A10"/>
<path d="M6.02411 59.0048C17.843 68.6708 34.8242 68.67 46.6435 59.0048L46.6431 12.9855C34.8246 3.31926 17.8428 3.31991 6.02369 12.9857L6.02411 59.0048ZM4.3508 59.7956L4.35059 12.195C17.4669 1.19998 35.5082 1.45798 48.3164 12.1948L48.3171 59.7953C35.3663 70.6682 17.3014 70.6684 4.3508 59.7956Z" fill="#107FCB"/>
<path d="M40.1099 22.7194C40.1099 29.9923 34.1535 35.8883 26.806 35.8883C19.4586 35.8883 13.5022 29.9923 13.5022 22.7194C13.5022 15.4465 19.4586 9.55048 26.806 9.55048C34.1535 9.55048 40.1099 15.4465 40.1099 22.7194Z" fill="white"/>
</g>
<defs>
<clipPath id="clip0_1120_9745">
<rect width="52" height="72" fill="white" transform="translate(0.333252)"/>
</clipPath>
</defs>
</svg>
